<svg id="Layer_1" data-name="Layer 1" xmlns="http://www.w3.org/2000/svg" viewBox="0 0 283.47 283.46">
    <path d="M109.66,0H246.43c30.69,69.89-30.92,126-30.92,126l-1.26,88.3a69.17,69.17,0,0,0,69.21,69.21H0A69,69,0,0,0,48.92,263.2a69,69,0,0,0,20.27-48.95V124.83S6,64.06,37,0h72.63Z" transform="translate(0)" fill="#232829"/>
    <path d="M160.79,191.27C184,181.42,205.84,142,205.84,142s1.67,24.18-25,57.43c0,0-36.76,40.91-39.1,84,0,0-23-30.81-28.39-83s28.27-84.23,28.27-84.23C144,113.57,193.42,67,193.42,67c30.5-33.14,28.84-67,28.84-67,11.91,52.32-5.74,78.51-6.83,80.05,33.76-43.2,30.68-65.75,30.68-65.75,2.5,7.77,4.76,16.53,4.76,16.53s6.81,49.27-45,97.44C158.64,172.1,160.79,191.27,160.79,191.27Z" transform="translate(0)" fill="#54dcf8"/>
    <path d="M109.31,208.43s-15.58-20-22.79-34.06A90,90,0,0,1,77.32,142s13.08,22.61,31,39.07C108.3,181.06,108,202.47,109.31,208.43Z" transform="translate(0)" fill="#54dcf8"/>
    <path d="M138.14,112.58c-26.18,28.5-27.86,52-27.86,52L84,135.48C70.32,122.38,52.38,98.55,48.62,91s-12-21.14-15.4-42.06S37.05,14.3,37.05,14.3s.33,15.09,10.06,34.86A153,153,0,0,0,70.88,83.51C59.72,66.6,61,63.26,57.9,46.33S60.89,0,60.89,0A95.35,95.35,0,0,0,72.18,43a93.33,93.33,0,0,0,9,13.79c2.48,3.28,5.47,7,8.22,10.41a197.21,197.21,0,0,0,16.92,18.25c4.65,4.46,10.21,9.73,13.89,13.12A187.3,187.3,0,0,0,138.14,112.58Z" transform="translate(0)" fill="#54dcf8"/>
    <path d="M283.47,37V283.46a69.21,69.21,0,0,1-69.22-69.21l1.26-88.3S277.13,69.89,246.44,0c.6,0,1.18,0,1.76,0L250,.17l1.75.22c.58.08,1.16.17,1.72.29a37.26,37.26,0,0,1,29,27.65c.14.56.25,1.12.37,1.68s.21,1.15.29,1.73a.36.36,0,0,1,0,.15c.08.43.13.86.17,1.3,0,.1,0,.22,0,.31.06.58.1,1.16.14,1.77S283.47,36.43,283.47,37Z" transform="translate(0)" fill="#54dcf8"/>
    <path d="M69.2,124.82v89.43a69,69,0,0,1-20.27,48.94A69,69,0,0,1,0,283.46V37A37,37,0,0,1,37,0C6,64.06,69.2,124.82,69.2,124.82Z" transform="translate(0)" fill="#54dcf8"/>
</svg>