<svg id="visual" viewBox="0 0 900 600" width="900" height="600" xmlns="http://www.w3.org/2000/svg" xmlns:xlink="http://www.w3.org/1999/xlink" version="1.1">
<rect x="0" y="0" width="900" height="600" fill="#000"></rect>
<g transform="translate(429.30646380100416 286.9760406461722)">
<path d="M120.5 -180C174.6 -177.4 249.7 -182.4 256.5 -153.7C263.4 -125 202 -62.5 174.2 -16.1C146.3 30.3 152 60.7 158.9 113.3C165.9 166 174.2 241.1 147.9 261.7C121.7 282.4 60.8 248.7 8.5 234C-43.8 219.3 -87.7 223.5 -109.8 200.4C-131.8 177.3 -132.2 126.9 -146.3 89C-160.3 51 -188.2 25.5 -202.9 -8.5C-217.6 -42.5 -219.2 -85 -209.7 -130.9C-200.2 -176.8 -179.6 -226.1 -142.8 -238.7C-106 -251.3 -53 -227.1 -9.9 -210C33.2 -192.8 66.3 -182.6 120.5 -180" fill="#BB004B"></path>
</g>
</svg>