<?xml version="1.0" encoding="utf-8"?>
<svg class="home_blob" version="1.1" id="visual" xmlns="http://www.w3.org/2000/svg" xmlns:xlink="http://www.w3.org/1999/xlink" x="0px" y="0px"
	 viewBox="0 0 555.6 600" xml:space="preserve">
<style type="text/css">
	.st0{clip-path:url(#SVGID_2_);}
	.st1{clip-path:url(#SVGID_4_);}
</style>
<g transform="translate(429.30646380100416 286.9760406461722)">
	<g>
		<defs>
			<path id="SVGID_1_" d="M-34.2-213.9c63.6,3.1,151.9-2.8,159.9,30.9c8.1,33.7-64.1,107.2-96.7,161.7C-3.9,33.3,2.8,69.1,11,130.9
				c8.2,61.9,18,150.2-12.9,174.4c-30.8,24.3-102.4-15.3-163.9-32.6s-113.1-12.3-139.1-39.5c-25.9-27.2-26.3-86.4-42.9-130.9
				c-16.5-44.7-49.3-74.6-66.5-114.6s-19.2-89.9-8-143.9s35.4-111.9,78.6-126.7s105.6,13.6,156.2,33.7
				C-136.8-228.9-97.9-216.9-34.2-213.9"/>
		</defs>
		<clipPath id="SVGID_2_">
			<use xlink:href="#SVGID_1_"  style="overflow:visible;"/>
		</clipPath>
		<path class="st0" d="M-34.2-213.9c63.6,3.1,151.9-2.8,159.9,30.9c8.1,33.7-64.1,107.2-96.7,161.7C-3.9,33.3,2.8,69.1,11,130.9
			c8.2,61.9,18,150.2-12.9,174.4c-30.8,24.3-102.4-15.3-163.9-32.6s-113.1-12.3-139.1-39.5c-25.9-27.2-26.3-86.4-42.9-130.9
			c-16.5-44.7-49.3-74.6-66.5-114.6s-19.2-89.9-8-143.9s35.4-111.9,78.6-126.7s105.6,13.6,156.2,33.7
			C-136.8-228.9-97.9-216.9-34.2-213.9"/>
	</g>
	<g>
		<defs>
			<path id="SVGID_3_" d="M-34.2-213.9c63.6,3.1,151.9-2.8,159.9,30.9c8.1,33.7-64.1,107.2-96.7,161.7C-3.9,33.3,2.8,69.1,11,130.9
				c8.2,61.9,18,150.2-12.9,174.4c-30.8,24.3-102.4-15.3-163.9-32.6s-113.1-12.3-139.1-39.5c-25.9-27.2-26.3-86.4-42.9-130.9
				c-16.5-44.7-49.3-74.6-66.5-114.6s-19.2-89.9-8-143.9s35.4-111.9,78.6-126.7s105.6,13.6,156.2,33.7
				C-136.8-228.9-97.9-216.9-34.2-213.9"/>
		</defs>
		<clipPath id="SVGID_4_">
			<use xlink:href="#SVGID_3_"  style="overflow:visible;"/>
		</clipPath>
		<g class="st1">
			
				<image class="home_blob_img" xlink:href="/images/me.png"  transform="matrix(9.858689e-02 0 0 9.858689e-02 -455.9383 -272.6202)">
			</image>
		</g>
	</g>
</g>
</svg>
